<?xml version="1.0" encoding="UTF-8"?>
<svg viewBox="0 -416 320 448" xmlns="http://www.w3.org/2000/svg">
  <g transform="scale(1,-1)">
    <path d="M168 287 232 363Q241 374 240 387Q239 399 229 408Q219 416 208 416Q194 416 184 405Q151 366 125 336Q77 281 49 246Q22 211 11 185Q0 159 0 128Q2 60 47 15Q92 -30 160 -32Q228 -30 273 15Q318 60 320 128Q318 194 276 238Q233 283 168 287ZM160 32Q119 33 92 60Q65 87 64 128Q65 169 92 195Q119 222 160 223Q201 222 228 195Q255 168 256 128Q255 88 228 60Q201 33 160 32Z" fill="#000"/>
  </g>
</svg>