<?xml version="1.0" encoding="UTF-8"?>
<svg viewBox="-1 -416 321 448" xmlns="http://www.w3.org/2000/svg">
  <g transform="scale(1,-1)">
    <path d="M320 104Q319 46 280 8Q242 -31 184 -32H104Q68 -32 41 -12Q14 8 3 41Q-1 54 4 66Q10 77 23 82Q36 86 47 80Q59 74 63 62Q74 34 104 32H184Q215 33 235 53Q255 73 256 104Q255 135 235 155Q215 175 184 176H80Q59 177 50 196Q43 217 58 232L190 352H32Q18 352 9 361Q0 370 0 384Q0 398 9 407Q18 416 32 416H272Q293 415 302 396Q309 375 294 360L162 240H184Q241 239 280 200Q318 162 320 104Z" fill="#000"/>
  </g>
</svg>