<?xml version="1.0" encoding="UTF-8"?>
<svg viewBox="0 -416 320 448" xmlns="http://www.w3.org/2000/svg">
  <g transform="scale(1,-1)">
    <path d="M268 199Q303 235 304 288Q303 342 266 378Q230 415 176 416H144Q90 415 54 378Q17 342 16 288Q17 235 52 199Q28 181 14 154Q0 128 0 96Q1 42 38 6Q74 -31 128 -32H192Q246 -31 282 6Q319 42 320 96Q320 128 306 154Q292 181 268 199ZM144 352H176Q203 351 221 333Q239 315 240 288Q239 261 221 243Q203 225 176 224H144Q117 225 99 243Q81 261 80 288Q81 315 99 333Q117 351 144 352ZM192 32H128Q101 33 83 51Q65 69 64 96Q65 123 83 141Q101 159 128 160H192Q219 159 237 141Q255 123 256 96Q255 69 237 51Q219 33 192 32Z" fill="#000"/>
  </g>
</svg>