<?xml version="1.0" encoding="UTF-8"?>
<svg viewBox="-2 -416 322 448" xmlns="http://www.w3.org/2000/svg">
  <g transform="scale(1,-1)">
    <path d="M320 103Q319 46 280 8Q242 -31 185 -32H105Q69 -32 41 -12Q13 8 2 42Q-2 55 3 67Q9 78 22 83Q35 87 46 81Q58 75 62 62Q74 34 105 32H185Q215 33 235 53Q255 73 256 103Q255 134 235 154Q215 174 185 175H32Q17 175 7 186Q-2 198 1 212L33 390Q39 414 64 416H256Q270 416 279 407Q288 398 288 384Q288 370 279 361Q270 352 256 352H91L70 239H185Q242 237 280 199Q319 161 320 103Z" fill="#000"/>
  </g>
</svg>