<?xml version="1.0" encoding="UTF-8"?>
<svg viewBox="-4 -418 388 450" xmlns="http://www.w3.org/2000/svg">
  <g transform="scale(1,-1)">
    <path d="M384 114Q384 100 375 91Q366 82 352 82H320V0Q320 -14 311 -23Q302 -32 288 -32Q274 -32 265 -23Q256 -14 256 0V82H32Q15 82 5 97Q-4 112 3 127L131 398Q137 410 149 414Q161 418 174 413Q186 407 190 395Q194 383 189 370L83 146H256V288Q256 302 265 311Q274 320 288 320Q302 320 311 311Q320 302 320 288V146H352Q366 145 375 136Q384 127 384 114Z" fill="#000"/>
  </g>
</svg>