<?xml version="1.0" encoding="UTF-8"?>
<svg viewBox="0 -416 320 448" xmlns="http://www.w3.org/2000/svg">
  <g transform="scale(1,-1)">
    <path d="M160 416Q92 414 47 369Q2 324 0 256Q2 190 44 146Q87 101 152 97L88 21Q79 10 80 -3Q81 -15 91 -24Q101 -32 112 -32Q126 -32 136 -21Q169 18 195 48Q244 103 271 138Q298 173 309 199Q320 225 320 256Q318 324 273 369Q228 414 160 416ZM160 160Q119 161 92 188Q65 215 64 255Q65 295 92 323Q119 350 160 351Q201 350 228 323Q255 296 256 255Q255 214 228 188Q201 161 160 160Z" fill="#000"/>
  </g>
</svg>